HIERARCHY
ROOT SpineBase
{
  OFFSET 0.000000 0.000000 0.000000
  CHANNELS 6 Xposition Yposition Zposition Zrotation Xrotation Yrotation
  JOINT SpineMid
  {
    OFFSET 0.000000 24.847802 0.000000
    CHANNELS 3 Zrotation Xrotation Yrotation
    JOINT SpineShoulder
    {
      OFFSET -0.102623 18.412096 -0.748453
      CHANNELS 3 Zrotation Xrotation Yrotation
      JOINT Neck
      {
        OFFSET -0.025949 6.039398 -0.550449
        CHANNELS 3 Zrotation Xrotation Yrotation
        JOINT Head
        {
          OFFSET 5.283640 10.747096 -1.813947
          CHANNELS 3 Zrotation Xrotation Yrotation
          End Site
          {
            OFFSET 0 0 0
          }
        }
      }
      JOINT ShoulderLeft
      {
        OFFSET -13.830442 -1.081867 -9.829637
        CHANNELS 3 Zrotation Xrotation Yrotation
        JOINT ElbowLeft
        {
          OFFSET -11.433044 -15.356209 1.646069
          CHANNELS 3 Zrotation Xrotation Yrotation
          JOINT WristLeft
          {
            OFFSET 2.138979 -14.073719 -20.044248
            CHANNELS 3 Zrotation Xrotation Yrotation
            JOINT HandLeft
            {
              OFFSET 1.606950 -7.544464 -6.214445
              CHANNELS 3 Zrotation Xrotation Yrotation
              JOINT HandTipLeft
              {
                OFFSET 2.040942 -5.795586 -2.345655
                CHANNELS 3 Zrotation Xrotation Yrotation
                End Site
                {
                  OFFSET 0 0 0
                }
              }
              JOINT ThumbLeft
              {
                OFFSET 0.013284 3.520244 -2.600534
                CHANNELS 3 Zrotation Xrotation Yrotation
                End Site
                {
                  OFFSET 0 0 0
                }
              }
            }
          }
        }
      }
      JOINT ShoulderRight
      {
        OFFSET 10.245231 -6.176104 1.994404
        CHANNELS 3 Zrotation Xrotation Yrotation
        JOINT ElbowRight
        {
          OFFSET -4.789581 -15.732608 -9.892001
          CHANNELS 3 Zrotation Xrotation Yrotation
          JOINT WristRight
          {
            OFFSET 10.044538 -20.580645 0.230278
            CHANNELS 3 Zrotation Xrotation Yrotation
            JOINT HandRight
            {
              OFFSET 2.975591 -2.807497 -5.179371
              CHANNELS 3 Zrotation Xrotation Yrotation
              JOINT HandTipRight
              {
                OFFSET 4.044493 -1.348730 4.991038
                CHANNELS 3 Zrotation Xrotation Yrotation
                End Site
                {
                  OFFSET 0 0 0
                }
              }
              JOINT ThumbRight
              {
                OFFSET -0.300689 -0.382062 -2.243372
                CHANNELS 3 Zrotation Xrotation Yrotation
                End Site
                {
                  OFFSET 0 0 0
                }
              }
            }
          }
        }
      }
    }
  }
  JOINT HipLeft
  {
    OFFSET -5.779597 0.299840 -6.192846
    CHANNELS 3 Zrotation Xrotation Yrotation
    JOINT KneeLeft
    {
      OFFSET 9.216575 -2.395311 -30.418987
      CHANNELS 3 Zrotation Xrotation Yrotation
      JOINT AnkleLeft
      {
        OFFSET -6.410062 -36.358302 1.477985
        CHANNELS 3 Zrotation Xrotation Yrotation
        JOINT FootLeft
        {
          OFFSET 1.991627 -7.113029 -9.915014
          CHANNELS 3 Zrotation Xrotation Yrotation
          End Site
          {
            OFFSET 0 0 0
          }
        }
      }
    }
  }
  JOINT HipRight
  {
    OFFSET 5.547458 -0.126284 -0.663038
    CHANNELS 3 Zrotation Xrotation Yrotation
    JOINT KneeRight
    {
      OFFSET 26.085247 -0.196978 -14.593028
      CHANNELS 3 Zrotation Xrotation Yrotation
      JOINT AnkleRight
      {
        OFFSET -6.109939 -36.200012 -5.537843
        CHANNELS 3 Zrotation Xrotation Yrotation
        JOINT FootRight
        {
          OFFSET -7.750436 -8.601759 -1.854464
          CHANNELS 3 Zrotation Xrotation Yrotation
          End Site
          {
            OFFSET 0 0 0
          }
        }
      }
    }
  }
}
MOTION
Frames: 10
Frame Time: 0.033333
6.193699 53.877897 395.935411 -6.403101 -0.662175 -16.555726 -0.227281 0.290768 16.271357 0.357187 0.035697 -0.296367 9.719627 5.370084 -1.526475 0.000000 0.000000 0.000000 42.499393 22.118073 -25.608371 -55.781397 -68.486892 26.272142 48.545906 22.585655 -47.672945 -12.340213 -18.766018 -1.517388 0.000000 0.000000 0.000000 0.000000 0.000000 0.000000 46.185513 -44.659174 9.443016 -169.518338 6.569887 -169.674886 36.497372 -64.142593 7.448319 27.946361 -43.760049 133.829670 0.000000 0.000000 0.000000 0.000000 0.000000 0.000000 5.348411 -13.352160 8.923891 3.470307 17.546079 6.559578 -7.941819 -11.523569 8.167847 0.000000 0.000000 0.000000 -1.876696 -6.606297 23.856948 14.681074 0.722240 -8.468416 -5.319771 -1.821636 5.408280 0.000000 0.000000 0.000000
6.111720 53.776196 395.765855 -6.473971 -0.412102 -16.530654 -0.188504 0.138733 16.248105 0.425435 0.009519 -0.295575 9.799716 5.503530 -1.617179 0.000000 0.000000 0.000000 41.950004 22.226982 -25.598855 -52.572799 -67.647211 26.288384 45.238420 24.188511 -44.438407 -11.394993 -18.544289 -2.105412 0.000000 0.000000 0.000000 0.000000 0.000000 0.000000 50.943912 -48.200887 13.110623 -173.598776 2.969498 -165.743158 38.684402 -68.961826 7.178984 15.122846 -40.966955 130.553023 0.000000 0.000000 0.000000 0.000000 0.000000 0.000000 5.395459 -14.180318 8.268776 3.023337 17.371050 7.417992 -9.632534 -14.152562 10.577836 0.000000 0.000000 0.000000 -2.660768 -7.925858 23.988471 15.053553 0.532221 -8.565682 -5.526041 0.844488 3.778962 0.000000 0.000000 0.000000
5.954617 53.742396 395.749761 -6.713981 -0.442736 -16.316272 -0.089248 0.233206 16.029949 0.479869 0.002160 -0.297093 9.973459 5.688160 -1.707628 0.000000 0.000000 0.000000 41.298930 22.416987 -25.617017 -51.620635 -69.415518 27.028732 49.239567 25.575071 -47.240049 -14.329336 -22.121512 -2.747192 0.000000 0.000000 0.000000 0.000000 0.000000 0.000000 54.711002 -50.578517 16.185175 -179.739543 2.819825 -158.100194 2.238011 -70.309077 -25.847038 17.382253 -38.449093 128.026814 0.000000 0.000000 0.000000 0.000000 0.000000 0.000000 5.558765 -13.553208 7.283071 2.983896 17.907422 7.997657 -11.479669 -15.897475 12.574309 0.000000 0.000000 0.000000 -2.742251 -8.057773 23.317352 14.591164 0.414813 -7.945663 -4.130111 3.013873 1.906932 0.000000 0.000000 0.000000
5.762867 53.728634 395.803340 -7.042832 -0.577219 -16.399681 0.058855 0.410144 16.105455 0.506565 -0.008881 -0.302297 10.249432 5.933833 -1.803056 0.000000 0.000000 0.000000 40.056113 22.533232 -25.270244 -49.934925 -71.701223 28.525869 54.061995 25.884934 -51.469103 -15.949711 -22.609660 -1.747740 0.000000 0.000000 0.000000 0.000000 0.000000 0.000000 58.575117 -52.664693 19.418926 172.032995 4.741959 -149.225219 -27.543680 -50.220313 -44.767620 26.511356 -45.815226 121.617962 0.000000 0.000000 0.000000 0.000000 0.000000 0.000000 5.759275 -13.961491 6.872713 2.106757 16.589578 8.964998 -11.023745 -11.837565 14.394806 0.000000 0.000000 0.000000 -3.177463 -8.835559 24.235658 16.302406 0.146788 -9.058235 -7.498077 1.485832 4.448852 0.000000 0.000000 0.000000
5.616237 53.698468 395.899245 -7.297843 -0.770756 -16.255432 0.151734 0.602863 15.951958 0.484939 -0.015116 -0.310428 10.565664 6.156175 -1.873199 0.000000 0.000000 0.000000 40.348294 22.671429 -25.478177 -51.379858 -72.321077 28.662100 54.839237 22.994993 -53.471133 -17.091613 -20.538679 0.258085 0.000000 0.000000 0.000000 0.000000 0.000000 0.000000 60.737867 -53.704659 21.290058 167.841828 5.041874 -144.906770 -39.672691 -35.027711 -46.965690 41.433283 -51.698599 118.780581 0.000000 0.000000 0.000000 0.000000 0.000000 0.000000 5.842700 -14.535351 6.900796 1.547744 14.806708 9.281984 -9.570274 -4.744933 15.093911 0.000000 0.000000 0.000000 -1.919133 -7.351090 24.405915 14.638455 -0.959715 -8.916982 -6.597921 3.287056 3.034946 0.000000 0.000000 0.000000
5.452930 53.676583 395.990892 -7.557561 -0.968065 -15.962791 0.264019 0.810532 15.649902 0.464862 -0.016448 -0.317316 10.760877 6.395416 -1.971543 0.000000 0.000000 0.000000 41.291872 22.859263 -26.013014 -56.671615 -75.819766 27.752368 62.116329 21.461462 -59.349157 -19.214691 -23.790396 -0.326227 0.000000 0.000000 0.000000 0.000000 0.000000 0.000000 60.507930 -53.831368 21.637356 167.038467 5.865051 -143.497733 -44.045439 -27.275766 -45.168337 51.063088 -55.412457 118.994741 0.000000 0.000000 0.000000 0.000000 0.000000 0.000000 5.937059 -14.757846 6.921615 1.438549 13.722848 9.189808 -7.778217 2.946552 14.381916 0.000000 0.000000 0.000000 -1.205386 -6.123572 22.090623 12.909640 0.046332 -6.731557 -2.813674 6.699728 -1.764682 0.000000 0.000000 0.000000
5.400165 53.641517 396.120194 -7.596321 -1.241704 -15.679608 0.169028 0.962491 15.355604 0.397479 -0.008134 -0.327673 11.092139 6.835252 -2.140570 0.000000 0.000000 0.000000 42.389610 22.874727 -26.312717 -69.636491 -81.115276 22.163276 74.500695 15.997094 -69.129933 -25.159227 -31.120698 -2.044760 0.000000 0.000000 0.000000 0.000000 0.000000 0.000000 59.030072 -53.299915 20.763917 167.391642 6.776056 -142.642842 -49.955747 -17.853441 -41.785845 69.323335 -63.472915 121.371056 0.000000 0.000000 0.000000 0.000000 0.000000 0.000000 5.833953 -15.609446 8.030288 1.614896 11.703755 8.216717 -4.002338 16.177397 11.704634 0.000000 0.000000 0.000000 -0.519637 -4.536265 18.196907 9.972105 1.941601 -2.897959 4.165693 10.521605 -8.931733 0.000000 0.000000 0.000000
5.347166 53.626840 396.244685 -7.663971 -1.485781 -15.453543 0.100463 1.050449 15.114779 0.307553 0.003798 -0.340725 11.626376 7.446343 -2.372140 0.000000 0.000000 0.000000 43.703682 22.714978 -26.403628 -66.381150 -78.714102 23.026468 68.075931 24.106190 -61.746425 -21.593944 -32.568191 -7.501356 0.000000 0.000000 0.000000 0.000000 0.000000 0.000000 58.135054 -52.799136 19.925525 168.988510 6.896057 -144.001227 -52.006620 -14.652296 -39.172109 72.514676 -68.018590 119.679168 0.000000 0.000000 0.000000 0.000000 0.000000 0.000000 5.828949 -14.782955 7.852078 1.877193 11.940746 7.964656 -5.529788 10.578513 12.332577 0.000000 0.000000 0.000000 0.616914 -2.192121 8.756987 3.191846 5.193710 6.926234 15.632630 12.477085 -17.430058 0.000000 0.000000 0.000000
5.349183 53.593460 396.356552 -7.651884 -1.693421 -15.139707 -0.022353 1.050383 14.786143 0.185315 -0.006206 -0.357646 12.343786 8.192654 -2.646589 0.000000 0.000000 0.000000 43.628161 22.781768 -26.249115 -64.520667 -76.914897 24.863992 66.541250 21.797916 -61.231488 -20.276402 -27.368113 -3.447056 0.000000 0.000000 0.000000 0.000000 0.000000 0.000000 58.026455 -52.315670 19.004380 170.502608 5.757576 -145.710130 -51.501124 -18.014851 -40.966369 61.259070 -66.836108 111.877912 0.000000 0.000000 0.000000 0.000000 0.000000 0.000000 5.799623 -13.938679 8.193920 2.387187 11.852072 7.115243 -5.954089 10.087696 12.029577 0.000000 0.000000 0.000000 -1.257533 -2.943547 2.976383 1.956973 9.163010 12.451117 24.701209 18.050975 -29.484362 0.000000 0.000000 0.000000
5.391595 53.557856 396.408334 -7.576387 -1.764331 -15.066473 -0.140782 0.939926 14.703058 0.065979 0.007979 -0.370169 12.969040 8.804833 -2.884444 0.000000 0.000000 0.000000 42.762685 22.920072 -25.948424 -59.511551 -75.067424 27.115117 60.672048 24.119141 -56.358269 -16.905511 -23.263252 -3.213412 0.000000 0.000000 0.000000 0.000000 0.000000 0.000000 58.207047 -51.904993 18.180392 169.770463 5.970877 -145.253542 -43.196612 -24.470088 -41.636211 42.473457 -63.942671 107.536941 0.000000 0.000000 0.000000 0.000000 0.000000 0.000000 5.665261 -13.422329 7.181578 1.857279 13.098391 7.873788 -6.547364 6.334523 12.651507 0.000000 0.000000 0.000000 -3.205659 -4.084749 0.875885 2.078113 11.308274 14.596390 33.373306 19.697663 -37.280140 0.000000 0.000000 0.000000
